<svg width="92" height="100" viewBox="0 0 92 100" fill="none" xmlns="http://www.w3.org/2000/svg">
<path d="M49.5009 22.3928L54.097 21.63L58.0962 18.35L61.4757 18.8953L63.8329 17.9301L67.3861 18.9042L72.665 22.7474L76.6514 23.8717L81.8691 30.1009L85.6335 30.7272L85.5259 36.0485L82.6437 43.5393L80.7808 47.8409L82.8993 48.9721L80.3762 52.0595L81.5356 57.0339L81.5366 60.8604L85.2822 62.2682L85.299 66.1164L80.1305 70.9485L82.324 74.274L84.0034 77.9848L88.5966 81.0307L88.2068 86.0862L90.5424 87.2638L90.6864 89.9255L83.0483 92.0743L80.4492 98.3972L71.0646 95.7001L65.6574 93.8279L59.9985 92.4941L58.5569 85.3393L56.2303 84.0737L52.2183 84.6793L46.8042 86.8815L40.7891 84.3493L36.118 79.4342L31.3966 77.2913L28.5746 71.4751L25.6391 63.3243L22.8033 63.9853L19.777 61.7051L17.6388 63.7907L15.1513 60.4138L15.4305 57.27L13.8073 57.1011L15.0911 52.8944L12.9519 48.076L7.07203 44.1182L4.15825 37.974L5.83959 33.3098L8.62115 31.4465L8.6182 27.7762L5.4824 25.5483L2.9811 17.6742L0.738281 12.2611L1.94307 10.3692L1.14085 2.73807L4.81837 1.23242L5.36301 3.79421L7.61471 7.08019L11.01 8.31319L12.87 8.31419L19.3715 4.12518L21.3271 3.84065L22.6276 5.92528L20.5358 8.96921L23.3499 12.6958L24.6474 12.5051L25.7575 17.4153L30.4375 19.254L33.6344 22.8136L40.7447 24.667L48.8595 23.8263L49.5009 22.3928Z" fill="#FD8127" stroke="#B8B8B8"/>
</svg>
