<svg width="210" height="115" viewBox="0 0 210 115" fill="none" xmlns="http://www.w3.org/2000/svg">
<path d="M120.628 104.09L117.58 105.048L110.379 109.077L107.65 113.652L105.752 113.495L104.693 110.17L98.2522 109.272L97.8013 103.611L95.3295 103.303L96.4337 96.4431L90.8854 90.7079L82.1095 90.3375L76.0422 90.7277L71.8546 83.8673L67.9797 80.7364L60.6415 74.7572L59.7584 74.0291L46.2256 76.9109L43.7331 102.573L41.0897 102.629L38.0921 96.9322L34.8586 94.6539L28.9393 95.471L26.4547 97.5032L26.3442 95.8128L27.8933 93.089L27.176 90.5874L21.5339 87.6057L19.9 81.0762L17.2812 78.9926L17.3562 76.659L22.2286 77.8574L22.9736 72.6449L27.4187 71.9276L31.7465 73.4738L33.4071 66.478L32.9799 61.8197L27.8559 61.6439L23.7245 59.3745L17.4973 62.0173L12.5933 63.0616L10.1364 61.5994L11.054 57.8382L8.34154 52.4873L4.54662 52.3006L0.773438 46.6969L4.31969 41.1712L3.00144 39.4284L7.96857 31.1976L12.7117 36.3439L13.953 30.6147L25.3703 22.9184L33.3321 23.5428L43.9433 30.3529L49.6208 34.2376L55.3695 31.4149L63.4448 32.1016L69.5081 36.9466L71.2349 34.7246L78.3373 35.8232L80.0137 32.1352L72.3667 25.6462L77.6693 22.1251L76.9559 19.749L82.0661 18.0774L79.0083 11.868L81.6467 9.17673L100.983 8.16108L103.692 6.2632L116.751 4.35148L121.709 1.14453L130.642 4.02743L131.287 13.2936L136.815 11.7375L143.031 15.3851L142.119 20.0296L147.044 20.0562L160.639 13.2412L158.493 15.7754L164.281 23.0992L173.431 45.3068L176.584 41.3579L183.098 46.7512L190.619 45.451L193.272 47.1968L195.233 52.0754L198.624 53.9891L200.437 57.5626L207.095 57.2009L209.288 62.2663L204.88 66.9967L200.583 67.2674L199.544 74.8402L196.361 77.9177L186.536 74.4005L181.484 87.1947L178.714 88.5295L168.343 90.3394L171.629 103.081L167.952 104.52L167.945 108.491L164.921 107.155L162.631 104.408L155.165 102.89L146.758 101.812L144.83 102.382L137.898 98.6987L134.861 99.8358L133.645 103.831L125.53 100.574L122.082 101.196L120.628 104.09Z" fill="#FD8127" stroke="#B8B8B8"/>
</svg>
