<svg width="880" height="428" viewBox="0 0 880 428" fill="none" xmlns="http://www.w3.org/2000/svg">
<path d="M879.556 244.86L873.951 249.725L865.485 250.114L864.123 261.832L861.834 264.062L857.108 263.211L853.664 258.694L847.28 254.503L846.688 249.137L841.735 246.593L835.795 247.572L833.486 242.982L835.074 238.466L828.671 240.793L830.358 246.831L826.934 251.67L826.885 251.731L819.81 256.279L813.307 254.718L817.234 261.448L819.267 271.207L821.3 274.482L821.408 279.14L819.79 281.909L810.564 278.521L795.499 285.213L790.849 285.985L782.291 292.601L774.244 298.186L771.891 302.623L765.363 294.778L751.276 301.404L749.361 297.388L744.008 301.218L737.356 299.117L735.027 305.535L727.934 314.364L727.71 318.262L733.274 321.003L731.17 334.468L726.416 334.308L723.446 341.619L725.161 345.661L715.802 349.202L713.008 358.827L705.211 360.089L702.8 368.392L694.675 375.213L693.386 369.415L692.485 357.038L691.68 337.414L695.449 325.05L700.322 319.927L701.052 315.525L709.175 314.215L719.548 302.863L729.389 293.389L739.397 286.056L745.079 271.302L738.807 271.58L734.814 280.192L720.71 290.38L717.908 276.985L704.405 279.231L689.86 295.243L693.412 301.814L681.798 303.196L673.833 303.378L674.954 296.255L667.214 293.9L660.401 298.141L645.039 294.796L628.012 295.976L609.576 312.991L587.852 332.316L595.743 334.266L597.67 339.977L602.407 342.411L606.113 338.438L611.629 339.59L617.978 349.784L617.402 356.925L612.57 364.697L611.136 374.209L607.536 386.398L598.729 396.505L596.49 401.438L588.702 409.173L580.992 416.671L577.273 420.469L570.073 423.831L566.856 423.582L564.018 419.873L556.662 424.222L555.629 426.422L555.042 425.147L555.379 421.642L557.995 421.729L559.596 413.542L558.896 407.306L563.526 405.226L569.56 407.152L573.72 400.454L576.313 392.54L578.574 390.005L581.964 383.459L573.327 384.824L568.606 387.349L560.883 386.526L559.578 379.15L554.136 373.007L545.553 369.571L544.49 361.598L543.24 356.454L541.704 352.738L539.442 344.037L535.305 340.462L527.964 337.13L521.201 336.651L514.724 337.52L510.086 341.276L512.665 343.557L512.248 348.141L509.143 350.476L503.654 358.568L503.333 362.075L495.647 366.291L489.858 362.687L483.724 362.703L481.34 359.779L478.382 358.601L470.355 363.369L463.528 363.957L458.654 365.392L452.384 363.453L447.663 363.038L444.997 358.715L440.418 354.393L435.434 352.81L428.895 353.172L423.937 354.134L417.068 350.032L416.734 343.901L410.976 341.182L406.463 339.74L401.126 335.743L394.974 343.646L396.543 348.582L391.022 353.569L383.881 350.817L378.837 349.999L375.829 345.934L370.54 345.259L366.378 342.335L358.251 345.279L347.84 351.045L342.339 351.83L340.282 352.26L338.089 347.195L331.431 347.557L329.62 343.984L326.228 342.07L324.267 337.193L321.612 335.447L314.092 336.747L307.579 331.354L304.427 335.304L295.275 313.096L289.489 305.771L291.634 303.237L278.04 310.052L273.114 310.026L274.028 305.382L267.809 301.733L262.281 303.292L261.636 294.025L252.703 291.141L247.746 294.349L234.685 296.261L231.977 298.158L212.64 299.173L210.003 301.864L213.06 308.073L207.95 309.745L208.663 312.121L203.36 315.642L211.007 322.133L209.333 325.821L202.23 324.723L200.506 326.945L194.442 322.099L186.367 321.411L180.616 324.234L174.941 320.349L164.328 313.539L156.366 312.914L144.948 320.611L143.707 326.34L138.964 321.194L133.999 329.424L135.317 331.167L131.771 336.694L135.544 342.298L139.339 342.484L142.051 347.835L141.136 351.596L143.593 353.059L140.82 357.155L135.767 357.833L129.936 364.722L133.85 371.915L132.856 376.555L137.557 385.228L134.236 387.642L133.183 389.266L130.981 388.569L127.921 384.089L126.516 383.709L123.486 381.792L122.226 378.815L117.637 376.875L114.442 377.633L113.686 376.258L107.115 372.205L99.7499 370.289L95.579 368.642L94.8726 369.403L89.0164 362.777L83.4987 359.485L79.5508 354.814L83.3714 354.049L88.23 348.405L85.6931 345.193L93.501 342.957L93.5385 341.311L88.8497 342.033L89.3588 338.725L92.1986 336.897L97.1756 336.86L98.2402 334.412L97.5604 330.069L100.051 326.234L100.232 323.935L93.0087 320.589L90.0288 320.361L87.2817 316.323L83.251 317.17L77.089 313.691L77.3652 312.127L75.9256 308.441L71.9136 307.622L71.7577 305.051L73.2013 303.528L70.4434 298.512L65.0895 298.759L63.5887 298.181L62.1076 299.927L60.2447 299.394L59.556 293.931L58.6571 291.01L59.7188 290.324L63.788 291.05L65.9608 289.404L64.7353 286.974L61.4653 285.104L61.9359 283.581L60.0336 281.783L57.4474 275.724L58.7873 273.455L58.7311 269.213L53.9879 266.542L51.2084 267.338L50.7219 265.019L45.6107 262.175L44.547 256.577L44.5895 252.009L42.3674 249.583L44.8608 246.802L44.2994 237.637L48.5136 232.331L47.9305 230.51L54.2938 225.544L49.4796 220.111L61.7741 207.817L67.1527 202.047L69.657 196.614L62.9454 188.097L65.8138 180.792L62.1639 171.5L66.686 161.398L62.2912 146.334L68.026 136.885L61.193 127.007L62.9651 117.277L67.209 116.395L76.4653 111.52L82.2465 106.966L89.6696 116.667L103.23 121.538L120.786 139.254L124.018 146.032L123.439 154.772L117.091 160.885L108.44 163.361L86.7627 151.328L82.8583 152.568L90.1728 162.693L89.8956 168.451L88.9404 180.744L95.1094 185.001L98.7652 188.427L100.013 182.857L97.4864 177.45L101.199 173.244L112.705 181.979L117.289 179.537L114.797 170.326L127.93 159.336L132.544 160.563L136.827 165.474L140.705 157.053L137.283 148.833L140.612 141.097L137.771 132.188L151.523 138.118L153.629 146.017L147.021 146.987L146.284 154.32L149.821 159.166L157.967 157.196L160.091 148.958L171.38 143.678L190.366 133.67L194.124 134.768L188.23 142.661L194.385 144.75L198.519 140.443L208.086 141.064L216.243 136.064L221.154 145.061L227.899 136.436L223.446 127.567L226.597 123.013L241.145 129.028L247.705 134.285L264.447 152.196L268.604 145.339L264.222 137.333L264.393 134.274L258.416 132.209L260.823 125.439L259.342 113.371L259.71 108.387L270.614 94.8733L275.555 79.9431L279.693 76.9328L292.67 82.913L292.742 92.4321L286.534 105.143L289.166 110.521L289.669 121.47L286.402 141.447L291.108 150.623L287.972 159.484L276.071 176.945L281.686 179.416L284.187 175.066L290.125 172.36L292.152 166.054L297.217 160.184L295.067 152.14L298.409 143.163L292.974 141.41L292.594 133.262L298.228 118.664L292.967 105.203L303.216 95.1944L303.303 83.0562L305.879 82.9317L307.559 92.6316L303.904 108.152L309.039 111.614L307.936 99.8023L317.125 94.2025L327.766 94.4278L336.17 104.818L333.105 90.5085L334.56 71.7924L343.784 69.0547L355.924 71.1482L367.19 69.9113L364.086 59.7085L371.306 47.594L377.202 47.6642L388.137 38.6993L401.845 37.3644L404.143 31.8203L417.696 31.262L421.358 36.4301L433.954 26.311L443.254 27.6557L445.653 18.2958L451.527 9.12594L464.539 0.748047L472.455 9.30407L464.936 14.258L476.085 18.9503L476.307 30.0471L481.513 25.1945L496.34 27.0554L506.683 38.8673L509.934 47.1949L507.552 57.6871L501.311 62.9787L486.826 72.312L482.422 77.4989L488.451 80.7631L495.484 86.1871L500.421 83.2024L501.797 95.0798L504.516 90.6695L512.943 88.6669L528.936 93.3726L529.304 101.809L550.281 106.642L551.996 93.1088L562.449 97.4065L570.576 98.1633L577.803 108.353L578.992 119.56L575.252 126.206L580.304 139.55L587.632 146.733L594.286 130.59L601.677 138.703L610.792 135.302L620.112 141.267L624.327 137.169L632.406 140.3L630.338 124.671L637.825 117.996L682.573 133.832L685.88 144.007L697.917 157.484L718.75 156.701L728.6 160.332L732.164 167.128L730.398 177.981L736.223 182.79L743.339 180.528L752.394 181.094L761.689 184.964L771.491 184.369L779.012 197.996L785.784 194.152L782.64 184.51L785.594 178.182L801.374 184.039L812.034 184.27L825.927 192.785L832.381 199.778L843.718 211.723L855.647 226.451L854.365 234.459L857.453 237.987L857.266 228.522L870.853 231.914L879.556 244.86ZM631.305 384.788L627.656 370.303L626.419 361.898L627.407 353.751L626.506 345.392L625.785 339.535L623.394 340.519L624.991 344.734L619.879 348.17L618.229 359.55L620.367 367.87L619.028 378.468L617.234 384.22L616.949 392.516L615.616 399.744L615.91 406.015L619.84 400.677L623.225 405.521L623.908 400.388L619.762 392.19L624.053 381.435L631.305 384.788ZM14.7314 269.407L9.57284 267.293L2.25731 269.427L0.693359 273.165L6.84851 274.814L16.2095 275.668L16.0358 273.397L16.8301 271.045L14.7314 269.407ZM835.291 172.102L842.031 171.858L847.655 168.661L848.316 166.551L841.449 161.212L837.146 160.723L836.426 161.328L829.253 167.261L829.637 172.305L835.291 172.102ZM641.273 101.954L635.704 108.553L636.496 109.586L646.705 112.651L654.424 113.339L654.3 108.611L647.806 100.936L641.273 101.954ZM687.637 89.3525L694.322 82.2609L682.115 75.6988L672.961 71.6501L671.061 78.0284L679.694 86.768L687.637 89.3525ZM642.409 81.4794L661.087 83.9899L666.638 69.6277L649.422 56.6735L636.099 54.33L628.978 57.5804L624.767 71.3636L633.5 85.1527L642.409 81.4794Z" fill="#021A42" stroke="#B8B8B8"/>
</svg>
