<svg width="28" height="21" viewBox="0 0 28 21" fill="none" xmlns="http://www.w3.org/2000/svg">
<g clip-path="url(#clip0_79_18)">
<path d="M26.25 21H1.75001C0.783473 21 0 20.2165 0 19.25C0 18.2835 0.783473 17.5 1.75001 17.5H26.25C27.2165 17.5 28.0001 18.2835 28.0001 19.25C28 20.2165 27.2165 21 26.25 21Z" fill="#FD8127"/>
<path d="M26.25 12.25H1.75001C0.783473 12.25 0 11.4665 0 10.5C0 9.53353 0.783473 8.75 1.75001 8.75H26.25C27.2165 8.75 28.0001 9.53347 28.0001 10.5C28.0001 11.4665 27.2165 12.25 26.25 12.25Z" fill="#FD8127"/>
<path d="M26.25 3.50002H1.75001C0.783473 3.50002 0 2.71655 0 1.75001C0 0.783473 0.783473 0 1.75001 0H26.25C27.2165 0 28.0001 0.783473 28.0001 1.75001C28.0001 2.71655 27.2165 3.50002 26.25 3.50002Z" fill="#FD8127"/>
</g>
<defs>
<clipPath id="clip0_79_18">
<rect width="28" height="21" fill="white"/>
</clipPath>
</defs>
</svg>
