<svg width="51" height="45" viewBox="0 0 51 45" fill="none" xmlns="http://www.w3.org/2000/svg">
<path d="M3.65783 18.6688L8.56478 19.2448L14.4249 16.5644L16.125 11.7441L20.5899 9.34827L20.5327 5.29165L23.7819 4.10116L29.6105 1.17578L34.7217 4.01915L35.2081 6.3379L37.9897 5.54259L42.7328 8.21308L42.7891 12.4554L41.4511 14.7258L44.0343 20.784L45.9397 22.5792L45.469 24.1046L48.737 25.9738L49.9625 28.4042L47.7897 30.0502L43.7205 29.325L42.6588 30.0106L43.5597 32.9321L44.2484 38.3946L39.8339 38.4252L38.0775 40.0662L37.3197 44.1426L35.3808 43.1437L30.7511 43.0509L29.6194 41.0048L27.565 42.2249L25.7761 40.8457L21.7907 40.2608L16.3253 37.6961L11.2595 36.5105L7.30079 36.2793L4.28243 38.2098L1.81859 38.2711L2.10573 34.6077L0.941406 30.5995L4.16796 29.2143L4.5518 25.8631L3.48023 22.4863L3.65783 18.6688Z" fill="#FD8127" stroke="#B8B8B8"/>
</svg>
