<svg width="737" height="183" viewBox="0 0 737 183" fill="none" xmlns="http://www.w3.org/2000/svg">
<path fill-rule="evenodd" clip-rule="evenodd" d="M0 0C0 1.57828 0 34.0779 0 72.7778V143.139H10.0378H20.0775L20.576 110.072L21.0764 77.005L51.7745 76.5085L82.4727 76.012V109.575V143.139H93.4911H104.508L104.029 72.0223L103.549 0.905941H93.4691H83.3891L82.8851 29.4431L82.3792 57.9802H51.2705H20.16V28.9901V0H11.3024C6.42921 0 1.11577 0 0 0ZM253.023 41.8943C245.521 42.7532 238.738 44.0939 237.95 44.8731C237.162 45.6522 237.028 49.4028 237.653 53.2077L238.788 60.1237L246.311 59.0383C250.448 58.4404 262.69 57.8244 273.514 57.6667C297.065 57.3279 300.567 59.138 300.567 71.6454V79.3115L275.367 80.0598C238.211 81.165 232.751 85.2309 232.764 111.793C232.775 135.482 241.328 144.041 264.829 143.883C274.937 143.814 279.626 142.796 286.937 139.078C292.04 136.485 297.296 133.075 298.615 131.503C302.369 127.031 303.965 128.084 304.581 135.438C304.581 142.785 305.233 142.238 313.854 142.785L322.56 143.338L322.549 105.642C322.543 84.1728 321.682 64.8255 320.546 60.698C318.018 51.5063 310.871 43.9689 302.504 41.6715C294.873 39.5769 272.374 39.6766 253.023 41.8943ZM443.626 41.8001C436.125 42.7097 429.342 44.0939 428.554 44.8731C427.766 45.6522 427.63 49.3883 428.251 53.1751L429.382 60.0602L437.826 58.9532C442.47 58.3444 454.689 57.7193 464.979 57.5635C487.485 57.2265 491.171 59.2087 491.171 71.6454V79.3115L465.971 80.0598C428.814 81.165 423.354 85.2309 423.367 111.793C423.378 135.482 431.932 144.041 455.433 143.883C465.54 143.814 470.23 142.796 477.541 139.078C482.643 136.485 487.899 133.075 489.219 131.503C492.67 127.392 494.836 127.979 494.836 133.025C494.836 141.454 496.574 143.139 505.261 143.139H513.459L512.854 101.012C512.181 54.3492 511.45 51.2038 499.627 44.2353C492.903 40.2709 465.879 39.0968 443.626 41.8001ZM577.318 42.7876C572.788 44.4074 565.673 48.0511 561.505 50.8849L553.931 56.0379L552.769 48.8556C551.616 41.724 551.548 41.6733 543.382 41.6733H535.156V112.337V183H545.236H555.316V159.547V136.094L564.022 139.937C569.758 142.468 577.727 144.021 587.389 144.492C600.005 145.106 603.202 144.619 610.298 141.002C621.161 135.463 626.307 126.074 628.633 107.553C632.124 79.7427 625.942 53.7295 613.815 45.1919C605.956 39.6603 589.163 38.5532 577.318 42.7876ZM667.219 41.8001C659.718 42.7097 653.021 44.074 652.339 44.8296C651.655 45.5851 651.501 49.3375 651.994 53.1697L652.893 60.1382L660.462 59.0438C664.624 58.444 676.887 57.8244 687.711 57.6667C711.261 57.3279 714.764 59.138 714.764 71.6454V79.3115L689.564 79.9964C667.479 80.5961 663.552 81.1759 657.804 84.6873C649.161 89.9671 646.953 95.3394 646.956 111.063C646.96 134.884 655.999 144.142 679.025 143.92C691.814 143.796 701.419 140.316 714.305 131.139C718.279 128.308 718.429 128.368 718.429 132.804C718.429 141.461 720.117 143.139 728.826 143.139H737L736.419 101.012C735.778 54.3438 735.048 51.2074 723.22 44.2353C716.495 40.2709 689.472 39.0968 667.219 41.8001ZM124.625 92.4059V143.139H132.719H140.814L164.225 111.884C177.102 94.6944 189.542 77.8656 191.87 74.4864L196.102 68.346V105.741V143.139H205.265H214.429V92.4059V41.6733H206.365H198.303L176.583 70.7485C164.639 86.742 152.184 103.645 148.909 108.312L142.953 116.799V79.2354V41.6733H133.789H124.625V92.4059ZM353.645 44.3204C344.335 49.3285 343.636 53.1787 343.636 99.4687V143.32H354.174H364.713L364.74 103.821C364.757 82.0963 365.548 63.0988 366.501 61.604C367.863 59.4696 373.86 58.6923 394.423 57.9802L420.611 57.0743L421.164 50.5316C421.698 44.2335 421.458 43.9472 414.75 42.851C401.188 40.6351 358.591 41.6606 353.645 44.3204ZM600.213 62.0569C605.865 66.8783 608.377 76.2168 608.377 92.4059C608.377 118.011 602.582 126.832 585.76 126.832C580.439 126.832 571.415 125.904 565.702 124.77L555.316 122.708V97.0679V71.4298L564.938 65.8003C576.997 58.7466 578.332 58.2991 587.745 58.1233C593.226 58.0219 596.804 59.1507 600.213 62.0569ZM300.567 104.808C300.567 110.902 299.587 114.437 297.36 116.366C291.136 121.762 281.529 125.427 271.179 126.355C257.632 127.569 252.916 123.715 252.916 111.431C252.916 97.905 256.265 96.0297 280.407 96.0297H300.567V104.808ZM491.171 104.808C491.171 110.902 490.19 114.437 487.964 116.366C481.74 121.762 472.132 125.427 461.783 126.355C448.236 127.569 443.52 123.715 443.52 111.431C443.52 97.905 446.868 96.0297 471.011 96.0297H491.171V104.808ZM714.764 105.707V115.384L705.47 120.385C694.276 126.41 677.224 128.538 671.913 124.576C669.622 122.867 668.168 118.936 667.576 112.851C666.836 105.229 667.336 103.056 670.565 99.8636C674.044 96.4247 676.518 96.0297 694.604 96.0297H714.764V105.707Z" fill="url(#paint0_linear_79_736)"/>
<defs>
<linearGradient id="paint0_linear_79_736" x1="-2.93435e-06" y1="103.679" x2="735.286" y2="56.6094" gradientUnits="userSpaceOnUse">
<stop stop-color="#F8F8F8"/>
<stop offset="0.560417" stop-color="white"/>
<stop offset="1" stop-color="#F8F8F8"/>
</linearGradient>
</defs>
</svg>
