<svg width="18" height="22" viewBox="0 0 18 22" fill="none" xmlns="http://www.w3.org/2000/svg">
<path d="M9 11.0013C9.61875 11.0013 10.1486 10.789 10.5896 10.3643C11.0306 9.93964 11.2507 9.42975 11.25 8.83464C11.25 8.2388 11.0295 7.72855 10.5885 7.30389C10.1475 6.87922 9.618 6.66725 9 6.66797C8.38125 6.66797 7.85138 6.8803 7.41037 7.30497C6.96937 7.72964 6.74925 8.23952 6.75 8.83464C6.75 9.43047 6.9705 9.94072 7.4115 10.3654C7.8525 10.7901 8.382 11.002 9 11.0013ZM9 21.4284C8.85 21.4284 8.7 21.4013 8.55 21.3471C8.4 21.293 8.26875 21.2207 8.15625 21.1305C5.41875 18.8013 3.375 16.639 2.025 14.6435C0.675 12.648 0 10.7839 0 9.0513C0 6.34297 0.904875 4.18533 2.71463 2.57839C4.52437 0.971441 6.6195 0.167969 9 0.167969C11.3812 0.167969 13.4767 0.971441 15.2865 2.57839C17.0962 4.18533 18.0007 6.34297 18 9.0513C18 10.7846 17.325 12.6491 15.975 14.6446C14.625 16.6401 12.5813 18.802 9.84375 21.1305C9.73125 21.2207 9.6 21.293 9.45 21.3471C9.3 21.4013 9.15 21.4284 9 21.4284Z" fill="white"/>
</svg>
