<svg version="1.1" xmlns="http://www.w3.org/2000/svg" xmlns:xlink="http://www.w3.org/1999/xlink">

<symbol id="arrow" width="32" height="32" viewBox="0 0 32 32" fill="none" xmlns="http://www.w3.org/2000/svg">
<path d="M31.5 2C31.5 1.17157 30.8284 0.5 30 0.499999L16.5 0.5C15.6716 0.5 15 1.17157 15 2C15 2.82843 15.6716 3.5 16.5 3.5L28.5 3.5L28.5 15.5C28.5 16.3284 29.1716 17 30 17C30.8284 17 31.5 16.3284 31.5 15.5L31.5 2ZM3.06066 31.0607L31.0607 3.06066L28.9393 0.93934L0.93934 28.9393L3.06066 31.0607Z" fill="white"/>
</symbol>

<symbol id="year_arr" width="53" height="50" viewBox="0 0 53 50" fill="none" xmlns="http://www.w3.org/2000/svg">
<g filter="url(#filter0_d_79_928)">
<path d="M7.19435 35.563L41.6836 18.1328L6.84313 3.00017L14.2261 19.3736L7.19435 35.563Z" fill="#021A42"/>
<path d="M6.50644 35.2643L5.67905 37.1692L7.53264 36.2324L42.0219 18.8022L43.448 18.0815L41.9824 17.4449L7.14192 2.31226L5.36153 1.53896L6.15942 3.30846L13.4059 19.3793L6.50644 35.2643Z" stroke="white" stroke-width="1.5"/>
</g>
<defs>
<filter id="filter0_d_79_928" x="0.880859" y="0.078125" width="51.332" height="49.6973" filterUnits="userSpaceOnUse" color-interpolation-filters="sRGB">
<feFlood flood-opacity="0" result="BackgroundImageFix"/>
<feColorMatrix in="SourceAlpha" type="matrix" values="0 0 0 0 0 0 0 0 0 0 0 0 0 0 0 0 0 0 127 0" result="hardAlpha"/>
<feOffset dx="2" dy="6"/>
<feGaussianBlur stdDeviation="2.5"/>
<feComposite in2="hardAlpha" operator="out"/>
<feColorMatrix type="matrix" values="0 0 0 0 0 0 0 0 0 0 0 0 0 0 0 0 0 0 0.15 0"/>
<feBlend mode="normal" in2="BackgroundImageFix" result="effect1_dropShadow_79_928"/>
<feBlend mode="normal" in="SourceGraphic" in2="effect1_dropShadow_79_928" result="shape"/>
</filter>
</defs>
</symbol>

<symbol id="link_arr" width="20" height="15" viewBox="0 0 20 15" fill="none" xmlns="http://www.w3.org/2000/svg">
<path d="M19.4005 8.20711C19.791 7.81658 19.791 7.18342 19.4005 6.79289L13.0365 0.428932C12.646 0.0384078 12.0128 0.0384078 11.6223 0.428932C11.2318 0.819457 11.2318 1.45262 11.6223 1.84315L17.2792 7.5L11.6223 13.1569C11.2318 13.5474 11.2318 14.1805 11.6223 14.5711C12.0128 14.9616 12.646 14.9616 13.0365 14.5711L19.4005 8.20711ZM0.308594 8.5L18.6934 8.5V6.5L0.308594 6.5L0.308594 8.5Z" fill="#FD8127"/>
</symbol>

<symbol id="map_dot" width="18" height="22" viewBox="0 0 18 22" fill="none" xmlns="http://www.w3.org/2000/svg">
<path d="M9 11.0013C9.61875 11.0013 10.1486 10.789 10.5896 10.3643C11.0306 9.93964 11.2507 9.42975 11.25 8.83464C11.25 8.2388 11.0295 7.72855 10.5885 7.30389C10.1475 6.87922 9.618 6.66725 9 6.66797C8.38125 6.66797 7.85138 6.8803 7.41037 7.30497C6.96937 7.72964 6.74925 8.23952 6.75 8.83464C6.75 9.43047 6.9705 9.94072 7.4115 10.3654C7.8525 10.7901 8.382 11.002 9 11.0013ZM9 21.4284C8.85 21.4284 8.7 21.4013 8.55 21.3471C8.4 21.293 8.26875 21.2207 8.15625 21.1305C5.41875 18.8013 3.375 16.639 2.025 14.6435C0.675 12.648 0 10.7839 0 9.0513C0 6.34297 0.904875 4.18533 2.71463 2.57839C4.52437 0.971441 6.6195 0.167969 9 0.167969C11.3812 0.167969 13.4767 0.971441 15.2865 2.57839C17.0962 4.18533 18.0007 6.34297 18 9.0513C18 10.7846 17.325 12.6491 15.975 14.6446C14.625 16.6401 12.5813 18.802 9.84375 21.1305C9.73125 21.2207 9.6 21.293 9.45 21.3471C9.3 21.4013 9.15 21.4284 9 21.4284Z" fill="white"/>
</symbol>

<symbol id="map_dot-orange" width="18" height="22" viewBox="0 0 18 22" fill="none" xmlns="http://www.w3.org/2000/svg">
<path d="M9 11.0013C9.61875 11.0013 10.1486 10.789 10.5896 10.3643C11.0306 9.93964 11.2507 9.42975 11.25 8.83464C11.25 8.2388 11.0295 7.72855 10.5885 7.30389C10.1475 6.87922 9.618 6.66725 9 6.66797C8.38125 6.66797 7.85138 6.8803 7.41037 7.30497C6.96937 7.72964 6.74925 8.23952 6.75 8.83464C6.75 9.43047 6.9705 9.94072 7.4115 10.3654C7.8525 10.7901 8.382 11.002 9 11.0013ZM9 21.4284C8.85 21.4284 8.7 21.4013 8.55 21.3471C8.4 21.293 8.26875 21.2207 8.15625 21.1305C5.41875 18.8013 3.375 16.639 2.025 14.6435C0.675 12.648 0 10.7839 0 9.0513C0 6.34297 0.904875 4.18533 2.71463 2.57839C4.52437 0.971441 6.6195 0.167969 9 0.167969C11.3812 0.167969 13.4767 0.971441 15.2865 2.57839C17.0962 4.18533 18.0007 6.34297 18 9.0513C18 10.7846 17.325 12.6491 15.975 14.6446C14.625 16.6401 12.5813 18.802 9.84375 21.1305C9.73125 21.2207 9.6 21.293 9.45 21.3471C9.3 21.4013 9.15 21.4284 9 21.4284Z" fill="#FD8127"/>
</symbol>


<symbol id="burger" width="28" height="21" viewBox="0 0 28 21" fill="none" xmlns="http://www.w3.org/2000/svg">
<g clip-path="url(#clip0_79_18)">
<path d="M26.25 21H1.75001C0.783473 21 0 20.2165 0 19.25C0 18.2835 0.783473 17.5 1.75001 17.5H26.25C27.2165 17.5 28.0001 18.2835 28.0001 19.25C28 20.2165 27.2165 21 26.25 21Z" fill="#FD8127"/>
<path d="M26.25 12.25H1.75001C0.783473 12.25 0 11.4665 0 10.5C0 9.53353 0.783473 8.75 1.75001 8.75H26.25C27.2165 8.75 28.0001 9.53347 28.0001 10.5C28.0001 11.4665 27.2165 12.25 26.25 12.25Z" fill="#FD8127"/>
<path d="M26.25 3.50002H1.75001C0.783473 3.50002 0 2.71655 0 1.75001C0 0.783473 0.783473 0 1.75001 0H26.25C27.2165 0 28.0001 0.783473 28.0001 1.75001C28.0001 2.71655 27.2165 3.50002 26.25 3.50002Z" fill="#FD8127"/>
</g>
<defs>
<clipPath id="clip0_79_18">
<rect width="28" height="21" fill="white"/>
</clipPath>
</defs>
</symbol>




</svg>